<svg height="512" width="512" xmlns="http://www.w3.org/2000/svg"><path d="m186.5749664 162.1522217c18.1462555 15.3119202 47.4286499 31.2741089 72.8443756 41.2323303-21.8627777-15.8652802-43.6183624-33.7482147-65.3347321-57.154892 18.0764465-38.5456619 39.6597595-91.7860489 61.9125214-146.1313171 36.2790833 92.6975708 103.8991699 232.2012177 194.4854431 397.7175293-24.6089478-13.5125732-46.9073181-21.2070618-69.9294128-27.1514282 7.6297302 4.355011 25.6652222 14.1963806 37.2369995 22.1072998 18.2805481 12.4972839 35.1973572 26.1633911 51.106781 39.2492065 14.1996155 26.1108246 28.5743409 52.7592011 43.1030579 79.8806915-72.2558289-41.8372192-142.4728088-75.7279663-200-86.1953125 18.8333435-104.471344-54.8805847-166.1076355-96.760025-99.6094055-16.1255188 25.6020813-20.4871674 67.7855835-12.8402405 99.1325684-72.7330627 14.0054932-143.8970718 53.2099914-202.3997345 86.6721496 68.1430206-123.4762573 137.0383453-248.6483459 186.5749664-349.7494201z"/></svg>