<?xml version="1.0" encoding="UTF-8" standalone="no"?>
<svg
   height="512"
   width="512"
   version="1.1"
   id="svg8"
   sodipodi:docname="nixos-logo.svg"
   inkscape:version="1.4 (e7c3feb100, 2024-10-09)"
   xmlns:inkscape="http://www.inkscape.org/namespaces/inkscape"
   xmlns:sodipodi="http://sodipodi.sourceforge.net/DTD/sodipodi-0.dtd"
   xmlns="http://www.w3.org/2000/svg"
   xmlns:svg="http://www.w3.org/2000/svg">
  <defs
     id="defs8" />
  <sodipodi:namedview
     id="namedview8"
     pagecolor="#ffffff"
     bordercolor="#000000"
     borderopacity="0.25"
     inkscape:showpageshadow="2"
     inkscape:pageopacity="0.0"
     inkscape:pagecheckerboard="0"
     inkscape:deskcolor="#d1d1d1"
     inkscape:zoom="1.6132812"
     inkscape:cx="256.30993"
     inkscape:cy="256"
     inkscape:window-width="1920"
     inkscape:window-height="1012"
     inkscape:window-x="0"
     inkscape:window-y="0"
     inkscape:window-maximized="1"
     inkscape:current-layer="svg8" />
  <g
     fill-rule="evenodd"
     transform="matrix(0.43242486,0,0,-0.4405455,1.2397015,156.95055)"
     id="g8">
    <path
       d="m 122.453,169.761 97.758,-169.34 -44.926,-0.422 -26.101,45.496 -26.286,-45.25 -22.32,0.008 -11.433,19.75 37.449,64.394 -26.582,46.258 z"
       fill="#5277c3"
       id="path1" />
    <path
       d="M 157.738,239.515 59.961,70.183 37.133,108.882 63.484,154.229 11.152,154.366 0,173.702 l 11.391,19.777 74.488,-0.234 26.769,46.152 z"
       fill="#7ebae4"
       id="path2" />
    <path
       d="M 165.238,104.155 360.77,104.143 338.672,65.026 286.223,65.171 312.27,19.784 301.102,0.456 278.277,0.429 241.238,65.058 187.883,65.167 Z"
       fill="#7ebae4"
       id="path3" />
    <path
       d="m 279.043,178.35 -97.758,169.34 44.926,0.422 26.101,-45.496 26.286,45.254 22.32,-0.008 11.434,-19.754 -37.45,-64.39 26.582,-46.262 z"
       fill="#7ebae4"
       id="path4" />
    <g
       fill="#5277c3"
       id="g7">
      <path
         d="m 122.453,169.761 97.758,-169.34 -44.926,-0.422 -26.101,45.496 -26.286,-45.25 -22.32,0.008 -11.433,19.75 37.449,64.394 -26.582,46.258 z"
         id="path5" />
      <path
         d="m 236,244.386 -195.535,0.011 22.101,39.118 52.45,-0.149 -26.047,45.391 11.168,19.328 22.82,0.023 37.043,-64.625 53.352,-0.109 z"
         id="path6" />
      <path
         d="m 243.625,108.636 97.777,169.328 22.825,-38.696 -26.348,-45.351 52.332,-0.137 11.152,-19.336 -11.39,-19.777 -74.489,0.238 -26.769,-46.152 z"
         id="path7" />
    </g>
  </g>
</svg>
